<svg xmlns="http://www.w3.org/2000/svg" width="1em" height="1em" viewBox="0 0 48 48">
	<path d="M0 0h48v48H0z" fill="none" />
	<defs>
		<mask id="SVGXHvbndxd">
			<g fill="none">
				<path stroke="#fff" stroke-linecap="round" stroke-linejoin="round" stroke-width="4" d="M42 18v22a2 2 0 0 1-2 2H8a2 2 0 0 1-2-2V18" />
				<path fill="#555" stroke="#fff" stroke-linejoin="round" stroke-width="4" d="M6 8a2 2 0 0 1 2-2h32a2 2 0 0 1 2 2v10H6z" />
				<path fill="#fff" fill-rule="evenodd" d="M12 14a2 2 0 1 0 0-4a2 2 0 0 0 0 4m6 0a2 2 0 1 0 0-4a2 2 0 0 0 0 4m6 0a2 2 0 1 0 0-4a2 2 0 0 0 0 4" clip-rule="evenodd" />
			</g>
		</mask>
	</defs>
	<path fill="#4cb3fa" d="M0 0h48v48H0z" mask="url(#SVGXHvbndxd)" />
</svg>
